<svg width="20" height="20" viewBox="0 0 20 20" fill="none" xmlns="http://www.w3.org/2000/svg">
<path d="M9.99995 1.45834C8.31059 1.45834 6.65916 1.9593 5.25449 2.89788C3.84982 3.83644 2.75493 5.17045 2.10844 6.73124C1.46194 8.29203 1.2928 10.0095 1.62239 11.6664C1.95197 13.3233 2.76546 14.8453 3.96004 16.0398C5.15461 17.2344 6.67659 18.0479 8.33353 18.3775C9.99045 18.7071 11.7079 18.538 13.2687 17.8915C14.8295 17.245 16.1635 16.1502 17.1021 14.7455C18.0407 13.3408 18.5416 11.6894 18.5416 10C18.5394 7.73529 17.6388 5.56398 16.0374 3.96259C14.4359 2.36119 12.2647 1.46054 9.99995 1.45834ZM13.8916 12.7083C13.9697 12.7858 14.0318 12.878 14.074 12.9795C14.1164 13.0811 14.1382 13.19 14.1382 13.3C14.1382 13.41 14.1164 13.5189 14.074 13.6205C14.0318 13.722 13.9697 13.8143 13.8916 13.8917C13.8141 13.9698 13.7219 14.0318 13.6204 14.0741C13.5189 14.1164 13.4099 14.1382 13.2999 14.1382C13.1899 14.1382 13.081 14.1164 12.9795 14.0741C12.8779 14.0318 12.7858 13.9698 12.7083 13.8917L9.99995 11.1833L7.29164 13.8917C7.13472 14.0475 6.92226 14.1346 6.70113 14.1338C6.47999 14.133 6.26825 14.0444 6.11244 13.8875C5.95663 13.7306 5.86955 13.5182 5.87034 13.2971C5.87111 13.0759 5.9597 12.8642 6.11661 12.7083L8.82495 10L6.11661 7.29167C6.02938 7.21696 5.9585 7.12503 5.90848 7.02164C5.85846 6.91825 5.83041 6.80564 5.82598 6.69088C5.82155 6.57611 5.84085 6.46167 5.88275 6.35473C5.92464 6.24779 5.9882 6.15068 6.06941 6.06947C6.15062 5.98825 6.24771 5.92469 6.35465 5.8828C6.46159 5.8409 6.57609 5.82158 6.69085 5.82601C6.80562 5.83044 6.91817 5.85854 7.02156 5.90856C7.12495 5.95858 7.21694 6.02943 7.29164 6.11667L9.99995 8.825L12.7083 6.11667C12.7858 6.03856 12.8779 5.97658 12.9795 5.93427C13.081 5.89197 13.1899 5.87016 13.2999 5.87016C13.4099 5.87016 13.5189 5.89197 13.6204 5.93427C13.7219 5.97658 13.8141 6.03856 13.8916 6.11667C14.0468 6.2728 14.1339 6.48403 14.1339 6.70418C14.1339 6.92434 14.0468 7.13554 13.8916 7.29167L11.1833 10L13.8916 12.7083Z" fill="#393939" fill-opacity="0.3"/>
</svg>
