<svg width="16" height="17" viewBox="0 0 16 17" fill="none" xmlns="http://www.w3.org/2000/svg">
<path d="M7.99998 1.66667C6.64849 1.66667 5.3273 2.06743 4.20357 2.81829C3.07983 3.56915 2.204 4.63637 1.6868 5.885C1.1696 7.13363 1.03426 8.5076 1.29793 9.83313C1.56159 11.1587 2.21243 12.3763 3.16808 13.3319C4.12374 14.2875 5.34133 14.9383 6.66685 15.202C7.99238 15.4657 9.36638 15.3304 10.615 14.8132C11.8636 14.296 12.9308 13.4201 13.6816 12.2964C14.4325 11.1727 14.8333 9.85153 14.8333 8.5C14.8316 6.68823 14.111 4.95117 12.8299 3.67005C11.5488 2.38894 9.81178 1.66843 7.99998 1.66667ZM11.38 7.22667L7.79998 10.8067C7.67845 10.9346 7.53058 11.0347 7.36665 11.1C7.03505 11.2331 6.66491 11.2331 6.33333 11.1C6.17093 11.0318 6.02363 10.9321 5.89997 10.8067L4.12666 9.03333C4.06417 8.97133 4.01455 8.8976 3.98071 8.8164C3.94686 8.73513 3.92943 8.648 3.92943 8.56C3.92943 8.472 3.94686 8.38487 3.98071 8.3036C4.01455 8.2224 4.06417 8.14867 4.12666 8.08667C4.25157 7.96253 4.42051 7.8928 4.59663 7.8928C4.77275 7.8928 4.94173 7.96253 5.06664 8.08667L6.84665 9.86667L10.4333 6.28666C10.4952 6.22417 10.569 6.17458 10.6502 6.14074C10.7315 6.10689 10.8186 6.08947 10.9066 6.08947C10.9946 6.08947 11.0818 6.10689 11.163 6.14074C11.2442 6.17458 11.318 6.22417 11.38 6.28666C11.4982 6.41065 11.5641 6.57537 11.5641 6.74667C11.5641 6.91796 11.4982 7.08268 11.38 7.20667V7.22667Z" fill="#3CC684"/>
</svg>
