<svg width="16" height="16" viewBox="0 0 16 16" fill="none" xmlns="http://www.w3.org/2000/svg">
<path d="M7.18854 12.5517C8.24941 12.5532 9.28681 12.2401 10.1696 11.6521C11.0523 11.064 11.7408 10.2275 12.1477 9.24841C12.5547 8.26928 12.6619 7.19148 12.4558 6.15141C12.2497 5.11136 11.7395 4.15577 10.9899 3.40555C10.2403 2.65534 9.28481 2.14421 8.24441 1.93685C7.20408 1.72948 6.1255 1.83519 5.14525 2.24061C4.165 2.64603 3.32709 3.33293 2.73756 4.2144C2.14802 5.09587 1.83334 6.13231 1.83334 7.19255C1.83334 8.61268 2.39732 9.97475 3.4014 10.9795C4.40548 11.9844 5.76758 12.5499 7.18854 12.5517Z" stroke="white" stroke-width="1.5" stroke-linecap="round" stroke-linejoin="round"/>
<path d="M10.9922 10.994L14.1667 14.1667" stroke="white" stroke-width="1.5" stroke-linecap="round" stroke-linejoin="round"/>
</svg>
